<?xml version="1.0" standalone="no"?><!DOCTYPE svg PUBLIC "-//W3C//DTD SVG 1.1//EN" "http://www.w3.org/Graphics/SVG/1.1/DTD/svg11.dtd"><svg t="1603977528604" class="icon" viewBox="0 0 1024 1024" version="1.1" xmlns="http://www.w3.org/2000/svg" p-id="7105" id="mx_n_1603977528605" xmlns:xlink="http://www.w3.org/1999/xlink" width="128" height="128"><defs><style type="text/css"></style></defs><path d="M544 290.1376c-144.9088 0-262.4 117.4784-262.4 262.4 0 2.8672 0.2688 5.6448 0.3456 8.4992 1.8176-1.3952 120.7552-91.2384 128.7296-96.2944 1.4464-0.9216 212.096 158.2976 214.6816 163.1488l45.2352-31.936C679.8464 577.216 698.0608 563.2 725.3376 563.2s45.4912 14.016 54.7328 32.7424h22.7456a263.808 263.808 0 0 0 3.584-43.4176c0-144.9216-117.4912-262.3872-262.4-262.3872z" fill="#cdcdcd" p-id="7106"></path><path d="M777.2416 595.9424a12.8 12.8 0 0 1-12.6336-14.8992c2.24-13.568 3.392-27.4688 3.392-41.3184 0-137.6256-111.9744-249.6-249.6-249.6S268.8 402.0992 268.8 539.7248c0 13.8496 1.152 27.7504 3.4048 41.3184a12.7872 12.7872 0 1 1-25.2416 4.1984A277.1712 277.1712 0 0 1 243.2 539.7248c0-151.744 123.456-275.2 275.2-275.2S793.6 387.9808 793.6 539.7248c0 15.2448-1.2672 30.5792-3.7504 45.5168a12.8 12.8 0 0 1-12.608 10.7008z" fill="#cdcdcd" p-id="7107"></path><path d="M683.7248 688.7296a12.6592 12.6592 0 0 1-7.808-2.6752L410.8032 481.0112 154.1248 685.9264a12.8 12.8 0 1 1-15.9744-19.9936l264.5376-211.2a12.7872 12.7872 0 0 1 15.808-0.128l273.0624 211.2a12.8 12.8 0 0 1-7.8336 22.9248z" fill="#cdcdcd" p-id="7108"></path><path d="M892.7872 688.7296a12.672 12.672 0 0 1-7.8336-2.688l-158.4128-123.1104-93.1456 74.9312a12.8128 12.8128 0 0 1-16.0512-19.9424l101.0432-81.2672c4.6208-3.712 11.2-3.7632 15.872-0.1408l166.4 129.3312a12.7872 12.7872 0 0 1-7.872 22.8864zM704 768H358.4a12.8 12.8 0 1 1 0-25.6h345.6a12.8 12.8 0 1 1 0 25.6z" fill="#cdcdcd" p-id="7109"></path></svg>